<?xml version="1.0" standalone="no"?>
<!DOCTYPE svg PUBLIC "-//W3C//DTD SVG 1.1//EN" "http://www.w3.org/Graphics/SVG/1.1/DTD/svg11.dtd" >
<svg xmlns="http://www.w3.org/2000/svg">
<metadata>Generated by IcoMoon</metadata>
<defs>
<font id="icomoon" horiz-adv-x="1024">
<font-face units-per-em="1024" ascent="960" descent="-64" />
<missing-glyph horiz-adv-x="1024" />
<glyph unicode="&#x20;" horiz-adv-x="512" d="" />
<glyph unicode="&#xe900;" glyph-name="search" d="M463.201 838.399c-188.662 0-341.603-152.94-341.603-341.6s152.941-341.6 341.603-341.6c188.66 0 341.6 152.94 341.6 341.6s-152.94 341.6-341.6 341.6zM23.998 496.799c0 242.565 196.636 439.2 439.203 439.2 242.563 0 439.2-196.635 439.2-439.2 0-242.563-196.637-439.2-439.2-439.2-242.567 0-439.203 196.637-439.203 439.2zM704.414 255.586c19.059 19.059 49.958 19.059 69.017 0l212.28-212.28c19.059-19.059 19.059-49.955 0-69.014s-49.955-19.059-69.014 0l-212.283 212.28c-19.056 19.059-19.056 49.955 0 69.014z" />
<glyph unicode="&#xe901;" glyph-name="trash" d="M161.472 535.638c20.742 0 37.558-16.816 37.558-37.558v-463.205h625.951v463.205c0 20.74 16.816 37.558 37.558 37.558 20.743 0 37.558-16.816 37.558-37.558v-470.716c0-37.337-30.265-67.602-67.602-67.602h-640.973c-37.334 0-67.602 30.265-67.602 67.602v470.716c0 20.74 16.814 37.558 37.558 37.558zM411.843 535.638c20.743 0 37.558-16.816 37.558-37.558v-300.457c0-20.743-16.814-37.558-37.558-37.558s-37.558 16.814-37.558 37.558v300.457c0 20.74 16.814 37.558 37.558 37.558zM612.157 535.638c20.743 0 37.558-16.816 37.558-37.558v-300.457c0-20.743-16.814-37.558-37.558-37.558s-37.558 16.814-37.558 37.558v300.457c0 20.74 16.814 37.558 37.558 37.558zM349.252 861.123h325.498v-125.191h-325.498v125.191zM749.863 735.933v132.703c0 37.334-30.265 67.602-67.602 67.602h-340.519c-37.334 0-67.601-30.267-67.601-67.602v-132.703h-212.824c-20.742 0-37.558-16.814-37.558-37.558s16.814-37.558 37.558-37.558h901.371c20.743 0 37.558 16.814 37.558 37.558s-16.814 37.558-37.558 37.558h-212.823z" />
<glyph unicode="&#xe902;" glyph-name="Call" d="M126.632 763.2c-0.069-0.1-0.1-0.149-0.093-0.137-0.792-1.385-1.654-2.725-2.581-4.013-8.332-11.583-26.091-44.561-5.569-113.486 21.442-72.007 84.734-182.666 244.214-341.050 159.25-158.126 271.304-221.751 345.59-243.553 72.499-21.283 108.748-2.821 121.732 6.402 1.217 0.866 2.471 1.66 3.763 2.385-0.217-0.12-0.045-0.007 0.464 0.337 2.144 1.45 10.303 6.963 21.166 16.135 13.083 11.045 28.084 25.74 39.913 42.459 12.004 16.963 18.678 33.074 19.74 47.501 0.931 12.643-1.997 28.964-18.881 49.453-57.653 69.505-93.098 92.136-114.831 98.541-18.472 5.447-31.868 0.946-56.56-10.922-1.681-0.811-3.433-1.663-5.248-2.547-23.661-11.547-58.408-28.503-102.988-22.963-47.566 5.908-98.875 35.748-161.92 98.332-62.526 62.1-94.050 114.113-100.38 164.356-5.967 47.339 12.324 84.191 23.819 107.347 0.924 1.858 1.801 3.627 2.619 5.304 12.093 24.813 14.87 35.038 10.547 49.493-5.832 19.5-27.648 54.258-98.311 112.051-21.070 17.127-39.46 21.224-55.33 20.070-16.968-1.234-34.503-8.799-51.711-20.805-33.996-23.72-57.496-58.242-59.165-60.692zM231.775 935.61c37.062 2.696 75.567-8.454 112.361-38.39l0.085-0.069c72.968-59.672 113.424-108.869 127.734-156.712 15.825-52.892-3.381-93.398-16.152-119.603-13.839-28.399-19.723-40.815-17.533-58.187 2.303-18.265 15.791-51.962 73.897-109.669 57.622-57.203 92.629-72.059 114.055-74.719 20.685-2.571 35.621 4.612 62.584 17.575l1.22 0.584c26.685 12.829 64.371 30.167 113.707 15.623 46.078-13.582 95.16-52.766 155.779-125.856l0.079-0.093c30.507-36.985 42.93-77.173 39.989-117.103-2.815-38.153-19.249-70.678-36.765-95.435-31.613-44.683-74.644-75.104-87.221-83.005-34.968-24.342-96.38-44.906-189.78-17.489-92.658 27.201-216.504 101.384-380.832 264.554-164.047 162.913-239.517 286.466-267.429 380.198-28.504 95.722-7.032 159.65 18.367 195.71 8.321 13.024 39.061 55.671 83.633 86.773 24.807 17.309 56.249 32.697 92.223 35.313z" />
<glyph unicode="&#xe903;" glyph-name="cart" d="M308.681 44.871c0 46.875 36.414 84.871 81.335 84.871s81.334-37.995 81.334-84.871c0-46.872-36.414-84.871-81.334-84.871s-81.335 37.999-81.335 84.871zM755.999 44.871c0 46.875 36.414 84.871 81.334 84.871s81.334-37.995 81.334-84.871c0-46.872-36.414-84.871-81.334-84.871s-81.334 37.999-81.334 84.871zM23.999 893.566c0 23.437 18.208 42.434 40.666 42.434h162.666c19.382 0 36.073-14.274 39.875-34.107l34.155-178.068h657.97c12.118 0 23.606-5.642 31.332-15.386s10.884-22.576 8.616-34.998l-65.124-356.346c-5.581-29.307-20.857-55.629-43.161-74.365-22.194-18.64-49.934-28.586-78.413-28.122h-394.578c-28.476-0.464-56.216 9.481-78.413 28.122-22.295 18.73-37.57 45.040-43.155 74.329l-67.934 354.182c-0.275 1.172-0.505 2.361-0.686 3.569l-33.821 176.321h-129.333c-22.46 0-40.666 19-40.666 42.434zM317.641 638.958l58.563-305.329c1.861-9.767 6.952-18.541 14.389-24.788 7.433-6.244 16.736-9.561 26.276-9.372l0.78 0.010 396.057-0.010c9.547-0.189 18.846 3.131 26.28 9.372 7.402 6.217 12.479 14.939 14.361 24.654l55.828 305.46h-592.535z" />
<glyph unicode="&#xe904;" glyph-name="home" d="M482.663 950.195c17.254 13.073 41.421 13.073 58.675 0l430.080-325.818c11.639-8.82 18.449-22.378 18.449-36.741v-512c0-37.035-15.104-72.55-41.991-98.737-26.883-26.187-63.348-40.899-101.369-40.899h-669.013c-38.021 0-74.486 14.711-101.371 40.899s-41.989 61.703-41.989 98.737v512c0 14.363 6.808 27.921 18.448 36.741l430.081 325.818zM129.707 564.873v-489.236c0-12.346 5.035-24.183 13.996-32.911 8.962-8.731 21.117-13.633 33.79-13.633h669.013c12.674 0 24.829 4.902 33.789 13.633 8.963 8.728 13.998 20.569 13.998 32.911v489.236l-382.293 289.616-382.293-289.616zM320.851 448c0 25.706 21.395 46.544 47.787 46.544h286.72c26.392 0 47.787-20.838 47.787-46.544v-465.456c0-25.706-21.395-46.544-47.787-46.544s-47.787 20.838-47.787 46.544v418.912h-191.147v-418.912c0-25.706-21.395-46.544-47.787-46.544s-47.787 20.838-47.787 46.544v465.456z" />
<glyph unicode="&#xe905;" glyph-name="map" d="M512 874.666c-90.527 0-177.347-35.962-241.359-99.975s-99.974-150.833-99.974-241.361c0-132.185 86.005-260.451 180.307-359.991 46.279-48.852 92.701-88.842 127.603-116.637 12.991-10.342 24.337-18.958 33.423-25.672 9.086 6.714 20.432 15.329 33.423 25.672 34.901 27.795 81.323 67.785 127.604 116.637 94.3 99.54 180.306 227.806 180.306 359.991 0 90.528-35.963 177.348-99.973 241.361-64.014 64.013-150.832 99.975-241.36 99.975zM512-21.34c-23.668-35.502-23.692-35.485-23.692-35.485l-0.119 0.082-0.287 0.188-0.976 0.662c-0.829 0.567-2.017 1.376-3.533 2.423-3.028 2.099-7.383 5.158-12.875 9.124-10.974 7.926-26.511 19.497-45.096 34.294-37.098 29.542-86.674 72.219-136.396 124.703-97.697 103.124-203.693 252.194-203.693 418.679 0 113.16 44.952 221.685 124.968 301.701s188.54 124.969 301.699 124.969c113.159 0 221.682-44.953 301.698-124.969s124.969-188.541 124.969-301.701c0-166.485-105.994-315.556-203.694-418.679-49.719-52.483-99.297-95.16-136.393-124.703-18.586-14.797-34.123-26.368-45.097-34.294-5.492-3.966-9.847-7.025-12.875-9.124-1.516-1.048-2.703-1.857-3.533-2.423l-0.976-0.662-0.287-0.188-0.089-0.061c0 0-0.055-0.038-23.723 35.465zM512-21.34l23.668-35.502c-14.333-9.554-33.027-9.54-47.36 0.017l23.692 35.485zM512 618.663c-47.128 0-85.333-38.205-85.333-85.337 0-47.128 38.205-85.333 85.333-85.333s85.333 38.205 85.333 85.333c0 47.131-38.205 85.337-85.333 85.337zM341.333 533.327c0 94.259 76.41 170.669 170.667 170.669s170.667-76.411 170.667-170.669c0-94.256-76.411-170.667-170.667-170.667s-170.667 76.411-170.667 170.667z" />
<glyph unicode="&#xe906;" glyph-name="mark-fill" d="M853.332-64l-341.333 284.443-341.333-284.443v910.222c0 30.176 10.275 59.116 28.564 80.453s43.095 33.325 68.96 33.325h487.621c25.863 0 50.668-11.987 68.96-33.325 18.289-21.337 28.563-50.277 28.563-80.453v-910.222z" />
<glyph unicode="&#xe907;" glyph-name="member" d="M111.891 270.619c49.787 48.009 117.314 74.981 187.724 74.981h424.77c70.41 0 137.936-26.972 187.723-74.981 49.79-48.009 77.759-113.125 77.759-181.019v-102.4c0-28.276-23.77-51.2-53.098-51.2-29.324 0-53.094 22.924-53.094 51.2v102.4c0 40.738-16.783 79.807-46.653 108.612-29.873 28.805-70.39 44.988-112.637 44.988h-424.77c-42.246 0-82.762-16.183-112.634-44.988s-46.655-67.874-46.655-108.612v-102.4c0-28.276-23.772-51.2-53.096-51.2s-53.096 22.924-53.096 51.2v102.4c0 67.895 27.97 133.011 77.758 181.019zM511.996 857.6c-87.972 0-159.287-68.769-159.287-153.6s71.315-153.6 159.287-153.6c87.975 0 159.29 68.769 159.29 153.6s-71.315 153.6-159.29 153.6zM246.516 704c0 141.385 118.86 256 265.48 256 146.623 0 265.482-114.615 265.482-256s-118.859-256-265.482-256c-146.62 0-265.48 114.616-265.48 256z" />
<glyph unicode="&#xe908;" glyph-name="member-black" d="M989.867-64v113.777c0 60.351-25.173 118.231-69.984 160.908-44.807 42.673-105.581 66.649-168.95 66.649h-477.867c-63.369 0-124.143-23.975-168.951-66.649-44.809-42.677-69.982-100.557-69.982-160.908v-113.777zM512.001 504.89c131.959 0 238.933 101.878 238.933 227.554s-106.974 227.556-238.933 227.556-238.933-101.88-238.933-227.556c0-125.677 106.974-227.554 238.933-227.554z" />
<glyph unicode="&#xe909;" glyph-name="arrow-down" d="M27.102 650.045l484.898-484.898 484.898 484.898-80.808 80.808-404.073-404.073-404.073 404.073-80.808-80.808z" />
<glyph unicode="&#xe90a;" glyph-name="check" d="M1001.623 931.471c15.55-12.89 17.709-35.944 4.819-51.495l-495.122-597.334c-6.946-8.382-17.268-13.233-28.154-13.233-10.89 0-21.209 4.851-28.157 13.233l-148.536 179.2c-12.891 15.55-10.734 38.605 4.816 51.495s38.608 10.732 51.495-4.819l120.381-145.23 466.964 563.364c12.888 15.55 35.942 17.708 51.493 4.818zM143.237 833.828c-16.165 0-31.669-6.422-43.1-17.852s-17.852-26.934-17.852-43.1v-682.667c0-16.165 6.422-31.668 17.852-43.099s26.934-17.853 43.1-17.853h682.668c16.165 0 31.668 6.422 43.099 17.853s17.853 26.934 17.853 43.099v341.334c0 20.196 16.372 36.571 36.571 36.571s36.571-16.375 36.571-36.571v-341.334c0-35.565-14.128-69.673-39.275-94.819-25.149-25.147-59.257-39.275-94.819-39.275h-682.668c-35.564 0-69.672 14.128-94.819 39.275s-39.276 59.254-39.276 94.819v682.667c0 35.564 14.128 69.672 39.276 94.82s59.255 39.275 94.819 39.275h536.382c20.196 0 36.571-16.373 36.571-36.571s-16.375-36.571-36.571-36.571h-536.382z" />
<glyph unicode="&#xe90b;" glyph-name="multi" d="M16.519 910.448c0 18.243 14.789 33.032 33.032 33.032h768.436c18.24 0 33.032-14.789 33.032-33.032v-768.433c0-18.244-14.792-33.032-33.032-33.032h-768.436c-18.243 0-33.032 14.789-33.032 33.032v768.434zM1007.48 806.142c0 18.243-14.789 33.032-33.032 33.032h-33.032v-820.591h-820.59v-33.032c0-18.244 14.789-33.032 33.033-33.032h820.59c18.244 0 33.032 14.789 33.032 33.032v820.591z" />
<glyph unicode="&#xe90c;" glyph-name="upload" d="M56.555 329.848c8.053 0 15.774-3.187 21.469-8.868s8.893-13.389 8.893-21.417v-151.442c0-16.070 6.394-31.474 17.786-42.835s26.834-17.743 42.939-17.743h728.719c16.107 0 31.551 6.382 42.938 17.743 11.394 11.36 17.787 26.765 17.787 42.835v151.442c0 8.029 3.198 15.737 8.893 21.417s13.418 8.868 21.469 8.868c8.051 0 15.774-3.187 21.469-8.868s8.893-13.389 8.893-21.417v-151.442c0-32.131-12.798-62.949-35.574-85.67-22.773-22.717-53.663-35.486-85.876-35.486h-728.719c-32.212 0-63.103 12.763-85.878 35.486s-35.572 53.539-35.572 85.67v151.442c0 8.029 3.197 15.737 8.893 21.417s13.417 8.868 21.47 8.868zM490.51 860.14c2.816 2.817 6.172 5.059 9.862 6.586s7.646 2.312 11.638 2.312c3.992 0 7.948-0.785 11.638-2.312s7.039-3.763 9.865-6.586l182.177-181.73c5.703-5.688 8.905-13.398 8.905-21.447s-3.202-15.76-8.905-21.447c-5.707-5.688-13.437-8.881-21.499-8.881s-15.796 3.192-21.499 8.881l-130.322 130.060v-532.649c0-8.029-3.198-15.737-8.893-21.417s-13.418-8.868-21.469-8.868c-8.051 0-15.774 3.187-21.469 8.868s-8.893 13.389-8.893 21.417v532.649l-130.319-130.060c-2.822-2.816-6.179-5.050-9.868-6.573s-7.644-2.307-11.635-2.307c-3.991 0-7.945 0.784-11.635 2.307s-7.038 3.762-9.867 6.573c-2.82 2.816-5.064 6.159-6.592 9.838s-2.314 7.622-2.314 11.605c0 3.98 0.786 7.923 2.314 11.605s3.763 7.026 6.592 9.839l182.177 181.73z" />
<glyph unicode="&#xe90d;" glyph-name="edit" d="M62.587 803.781c24.832 24.832 58.512 38.783 93.631 38.783h308.966c24.378 0 44.138-19.761 44.138-44.138s-19.76-44.138-44.138-44.138h-308.966c-11.706 0-22.933-4.65-31.21-12.928s-12.928-19.504-12.928-31.21v-617.932c0-11.705 4.65-22.931 12.928-31.211 8.277-8.277 19.504-12.927 31.21-12.927h617.931c11.705 0 22.934 4.65 31.211 12.927 8.277 8.28 12.927 19.505 12.927 31.211v308.966c0 24.378 19.76 44.138 44.138 44.138s44.138-19.76 44.138-44.138v-308.966c0-35.116-13.951-68.799-38.785-93.629-24.83-24.834-58.509-38.785-93.629-38.785h-617.931c-35.118 0-68.798 13.951-93.631 38.785-24.832 24.83-38.783 58.513-38.783 93.629v617.932c0 35.118 13.951 68.798 38.783 93.631zM862.424 847.919c-13.125 0-25.713-5.214-34.996-14.496l-410.666-410.665-23.33-93.325 93.325 23.333 410.663 410.664c9.283 9.282 14.498 21.871 14.498 34.997s-5.215 25.715-14.498 34.997c-9.28 9.282-21.868 14.496-34.996 14.496zM765.007 895.844c25.837 25.837 60.879 40.352 97.418 40.352s71.581-14.515 97.418-40.352c25.837-25.837 40.353-60.879 40.353-97.417s-14.516-71.58-40.353-97.417l-419.31-419.309c-5.657-5.657-12.744-9.672-20.505-11.61l-176.552-44.138c-15.041-3.761-30.952 0.646-41.915 11.61-10.963 10.96-15.37 26.875-11.61 41.913l44.138 176.552c1.94 7.761 5.953 14.848 11.61 20.505l419.309 419.311z" />
<glyph unicode="&#xe90e;" glyph-name="arrow-up" d="M998.505 245.285l-486.505 486.505-486.505-486.505 81.075-81.075 405.412 405.412 405.412-405.412 81.075 81.075z" />
<glyph unicode="&#xe90f;" glyph-name="calender" d="M178.329 761.014c-29.478 0-47.667-21.541-47.667-41.311v-622.85c0-19.773 18.191-41.313 47.667-41.313h667.341c29.478 0 47.667 21.542 47.667 41.313v622.85c0 19.772-18.19 41.311-47.667 41.311h-667.341zM35.328 719.703c0 78.511 67.174 136.646 143.002 136.646h667.341c75.824 0 143.002-58.135 143.002-136.646v-622.85c0-78.513-67.176-136.649-143.002-136.649h-667.341c-75.826 0-143.002 58.136-143.002 136.649v622.85zM702.669 935.796c21.062 0 38.135-17.073 38.135-38.135v-177.957c0-21.061-17.072-38.135-38.135-38.135s-38.135 17.073-38.135 38.135v177.957c0 21.062 17.072 38.135 38.135 38.135zM321.331 935.796c21.061 0 38.135-17.073 38.135-38.135v-177.957c0-21.061-17.073-38.135-38.135-38.135s-38.135 17.073-38.135 38.135v177.957c0 21.062 17.073 38.135 38.135 38.135zM35.328 541.745c0 26.326 21.341 47.668 47.667 47.668h858.010c26.327 0 47.667-21.342 47.667-47.668 0-26.323-21.34-47.667-47.667-47.667h-858.010c-26.326 0-47.667 21.344-47.667 47.667z" />
<glyph unicode="&#xe910;" glyph-name="payment" d="M154.177 769.124c-12.635 0-33.64-14.159-33.64-45.873v-550.489c0-31.715 21.005-45.873 33.64-45.873h715.638c12.634 0 33.637 14.158 33.637 45.873v550.489c0 31.714-21.003 45.873-33.637 45.873h-715.638zM28.791 723.25c0 69.625 50.192 137.62 125.386 137.62h715.638c75.194 0 125.383-67.993 125.383-137.62v-550.489c0-69.623-50.188-137.62-125.383-137.62h-715.638c-75.194 0-125.386 67.996-125.386 137.62v550.489zM28.791 539.747c0 25.335 20.538 45.873 45.873 45.873h874.672c25.337 0 45.873-20.538 45.873-45.873s-20.536-45.873-45.873-45.873h-874.672c-25.335 0-45.873 20.538-45.873 45.873z" />
<glyph unicode="&#xe911;" glyph-name="Star-fill" d="M512 926.942l118.88-365.878h384.708l-311.234-226.125 118.88-365.881-311.234 226.125-311.234-226.125 118.881 365.881-311.234 226.125h384.708l118.88 365.878z" />
<glyph unicode="&#xe912;" glyph-name="Star" d="M512.002 927.047l118.904-365.96h384.792l-311.3-226.176 118.904-365.959-311.3 226.176-311.304-226.176 118.907 365.959-311.303 226.176h384.792l118.908 365.96z" />
<glyph unicode="&#xe913;" glyph-name="tag" d="M748.536 623.429c16.616 0 32.548 6.586 44.298 18.31s18.348 27.624 18.348 44.203-6.598 32.482-18.348 44.203c-11.747 11.724-27.682 18.31-44.298 18.31s-32.545-6.586-44.298-18.31c-11.747-11.724-18.348-27.624-18.348-44.203s6.602-32.481 18.348-44.203c11.75-11.724 27.682-18.31 44.298-18.31zM568.745 935.997c-16.568 0.111-32.998-3.058-48.332-9.323-15.337-6.266-29.27-15.507-41.002-27.183l-418.603-416.654c-11.658-11.605-20.908-25.386-27.226-40.559s-9.573-31.441-9.585-47.872c-0.012-16.43 3.222-32.703 9.517-47.882 6.295-15.183 15.525-28.978 27.168-40.597l310.036-309.316c23.496-23.441 55.357-36.607 88.582-36.607s65.083 13.166 88.582 36.607l415.405 414.463c11.667 11.636 20.912 25.458 27.211 40.669 6.303 15.214 9.53 31.514 9.499 47.975l-0.502 309.442c-0.048 32.975-13.149 64.597-36.452 87.979-23.3 23.383-54.917 36.63-87.96 36.862l-306.34 2zM523.636 855.229c5.866 5.838 12.836 10.46 20.503 13.592s15.88 4.719 24.166 4.663l306.34-2c16.527-0.115 32.339-6.743 43.992-18.442s18.2-27.517 18.214-44.011l0.502-309.44c0.007-8.22-1.612-16.362-4.76-23.953-3.152-7.595-7.77-14.496-13.595-20.307l-415.343-414.525c-5.821-5.811-12.726-10.423-20.334-13.571s-15.757-4.763-23.991-4.763c-8.231 0-16.383 1.616-23.991 4.763-7.602 3.145-14.513 7.76-20.331 13.571l-310.036 309.316c-5.822 5.811-10.437 12.708-13.583 20.297-3.146 7.594-4.764 15.729-4.758 23.943s1.634 16.348 4.791 23.936c3.157 7.588 7.782 14.478 13.613 20.282l418.601 416.652z" />
<glyph unicode="&#xe914;" glyph-name="pan" d="M999.999 680.306c0.035 6.423-1.193 12.787-3.625 18.734-2.426 5.947-6.007 11.353-10.527 15.912l-206.912 206.896c-4.56 4.523-9.969 8.1-15.915 10.528s-12.31 3.659-18.733 3.623c-6.423 0.036-12.788-1.192-18.736-3.623-5.945-2.428-11.355-6.008-15.912-10.528l-671.487-671.44c-4.523-4.557-8.101-9.966-10.528-15.912-2.428-5.945-3.659-12.31-3.624-18.733v-206.895c0-12.942 5.142-25.352 14.294-34.504s21.564-14.293 34.506-14.293h206.912c6.828-0.371 13.659 0.697 20.047 3.137 6.388 2.437 12.195 6.192 17.041 11.015l530.456 533.346 138.592 135.652c4.454 4.728 8.083 10.171 10.736 16.103 0.468 3.889 0.468 7.822 0 11.711 0.227 2.272 0.227 4.559 0 6.832l3.416 2.44zM259.703 57.665h-138.104v138.094l484.583 484.548 138.104-138.092-484.584-484.549zM813.095 611.016l-138.104 138.093 69.296 68.803 137.616-137.605-68.808-69.291z" />
<glyph unicode="&#xe915;" glyph-name="heart" d="M625.739 889.445c33.539 14.872 69.568 22.555 106.004 22.555 36.444 0 72.471-7.685 106.004-22.555s63.855-36.595 89.296-63.832c25.444-27.222 45.531-59.423 59.198-94.73 13.671-35.303 20.683-73.082 20.683-111.188 0-38.108-7.012-75.886-20.683-111.188-13.668-35.302-33.758-67.512-59.205-94.735 0-0.003 0.003 0 0 0l-392.457-419.958c-5.849-6.257-14.031-9.813-22.598-9.813-8.564 0-16.749 3.556-22.598 9.813l-392.457 419.958c-51.353 54.952-79.867 129.054-79.867 205.923s28.514 150.972 79.867 205.924c51.417 55.018 121.617 86.36 195.299 86.36s143.881-31.342 195.298-86.36l24.457-26.174 24.45 26.168c0.003 0.002 0-0.002 0 0 25.441 27.234 55.767 48.97 89.296 63.832zM731.743 850.135c-27.709 0-55.202-5.837-80.93-17.248-25.732-11.408-49.257-28.197-69.165-49.506l-47.067-50.364c-5.849-6.259-14.031-9.814-22.598-9.814-8.564 0-16.749 3.555-22.598 9.814l-47.061 50.358c-40.188 43.007-94.227 66.732-150.097 66.732s-109.909-23.731-150.096-66.732c-40.254-43.073-63.199-101.922-63.199-163.681s22.945-120.606 63.199-163.682l369.852-395.772 369.853 395.772c19.923 21.309 35.829 46.719 46.718 74.835s16.507 58.311 16.507 88.847c0 30.537-5.623 60.737-16.507 88.848-10.884 28.108-26.791 53.518-46.711 74.827-19.91 21.315-43.439 38.11-69.171 49.518-25.725 11.405-53.218 17.248-80.933 17.248z" />
<glyph unicode="&#xe916;" glyph-name="square" d="M566.223 393.777h433.777v-433.777h-433.777v433.777zM566.223 502.223v433.777h433.777v-433.777h-433.777zM457.777 502.223h-433.777v433.777h433.777v-433.777zM457.777 393.777v-433.777h-433.777v433.777h433.777z" />
<glyph unicode="&#xe917;" glyph-name="heart-fill" d="M930.608 829.957c-24.187 26.012-52.906 46.644-84.514 60.719s-65.486 21.32-99.698 21.32c-34.211 0-68.090-7.245-99.698-21.32s-60.327-34.713-84.514-60.719l-50.198-53.955-50.198 53.955c-48.858 52.516-115.117 82.015-184.212 82.015s-135.353-29.499-184.211-82.015-76.3-123.738-76.3-198c0-74.267 27.448-145.491 76.3-198l418.616-449.955 418.615 449.955c24.201 25.998 43.394 56.867 56.49 90.84s19.838 70.386 19.838 107.16c0 36.775-6.742 73.188-19.838 107.16s-32.29 64.841-56.49 90.839z" />
<glyph unicode="&#xe918;" glyph-name="arrow-big-left" d="M724.964 959.114l-511.113-511.115 511.113-511.112 85.185 85.185-425.927 425.927 425.927 425.929-85.185 85.186z" />
<glyph unicode="&#xe919;" glyph-name="arrow-big-right" d="M299.035-63.114l511.115 511.115-511.115 511.113-85.185-85.185 425.927-425.928-425.927-425.927 85.185-85.188z" />
<glyph unicode="&#xe91a;" glyph-name="arrow-s-left" d="M693.019 900.546l-452.548-452.548 452.548-452.545 90.51 90.509-362.039 362.036 362.039 362.038-90.51 90.51z" />
<glyph unicode="&#xe91b;" glyph-name="arrow-s-right" d="M330.981-4.548l452.548 452.548-452.548 452.549-90.51-90.51 362.039-362.039-362.039-362.040 90.51-90.509z" />
<glyph unicode="&#xe91c;" glyph-name="bell" d="M285.727 852.479c-60.012-60.012-93.726-141.405-93.726-226.274 0-153.264-32.78-248.441-62.99-303.824-15.168-27.805-29.937-46.051-40.197-56.88-5.142-5.427-9.182-9.026-11.615-11.052-1.217-1.013-2.367-1.894-2.367-1.894l-0.149-0.102c-0.070-0.051-0.041-0.029-0.041-0.029l0.19 0.132 0.167 0.113 0.089 0.062c-0.136-0.091-0.271-0.183-0.406-0.278-16.387-11.257-23.639-31.846-17.864-50.922 5.838-19.28 23.608-32.468 43.753-32.468h822.857c20.144 0 37.914 13.188 43.754 32.468 5.775 19.076-1.477 39.665-17.865 50.922l-0.132 0.099c-0.351 0.26-1.167 0.885-2.384 1.898-2.432 2.026-6.473 5.625-11.615 11.052-10.258 10.829-25.029 29.074-40.196 56.88-30.212 55.384-62.991 150.561-62.991 303.824 0 84.869-33.715 166.262-93.725 226.274-60.014 60.012-141.407 93.726-226.275 93.726s-166.262-33.714-226.274-93.726zM825.174 260.491h-626.346c3.478 5.698 6.97 11.732 10.449 18.11 38.362 70.331 74.153 180.868 74.153 347.604 0 60.621 24.082 118.759 66.947 161.625s101.004 66.947 161.625 66.947c60.621 0 118.758-24.082 161.624-66.947s66.948-101.004 66.948-161.625c0-166.736 35.792-277.274 74.152-347.604 3.482-6.378 6.971-12.412 10.448-18.11zM948.847 252.774l-0.059 0.040-25.359-38.038c25.359 38.038 25.417 37.998 25.417 37.998zM414.564 63.554c17.47 10.134 39.848 4.187 49.986-13.283 4.82-8.313 11.743-15.214 20.070-20.012 8.327-4.795 17.77-7.322 27.381-7.322s19.050 2.527 27.377 7.322c8.327 4.798 15.25 11.699 20.074 20.012 10.134 17.47 32.512 23.417 49.982 13.283 17.474-10.134 23.42-32.512 13.286-49.986-11.253-19.394-27.403-35.496-46.833-46.687-19.434-11.195-41.465-17.086-63.887-17.086-22.426 0-44.456 5.892-63.887 17.086-19.434 11.191-35.583 27.293-46.834 46.687-10.135 17.474-4.187 39.852 13.284 49.986z" />
<glyph unicode="&#xe91d;" glyph-name="list" d="M138.671 48c-29.329 0-54.454 11.2-75.363 33.6s-31.34 49.295-31.309 80.681v114.285c0 31.424 10.454 58.34 31.363 80.74s46.011 33.575 75.309 33.54h746.666c29.326 0 54.452-11.2 75.363-33.6 20.907-22.4 31.338-49.295 31.307-80.681v-114.285c0-31.424-10.456-58.34-31.363-80.74s-46.012-33.575-75.307-33.54h-746.666zM138.671 505.14c-29.329 0-54.454 11.2-75.363 33.6s-31.34 49.294-31.309 80.682v114.282c0 31.424 10.454 58.341 31.363 80.741s46.011 33.576 75.309 33.541h746.666c29.326 0 54.452-11.2 75.363-33.6 20.907-22.4 31.338-49.294 31.307-80.682v-114.282c0-31.424-10.456-58.341-31.363-80.741s-46.012-33.577-75.307-33.542h-746.666z" />
<glyph unicode="&#xe91e;" glyph-name="mark" d="M260.571 896c-17.558 0-34.807-7.38-47.832-21.194-13.085-13.878-20.74-33.082-20.74-53.472v-788.946l300.675 227.786c11.43 8.659 27.219 8.659 38.65 0l300.675-227.786v788.946c0 20.39-7.654 39.595-20.739 53.472-13.024 13.814-30.275 21.194-47.834 21.194h-502.856zM166.173 918.71c24.697 26.194 58.61 41.29 94.398 41.29h502.856c35.789 0 69.702-15.096 94.4-41.29 24.637-26.13 38.173-61.188 38.173-97.377v-853.333c0-12.147-6.88-23.248-17.757-28.656-10.88-5.408-23.882-4.186-33.568 3.149l-332.675 252.029-332.676-252.029c-9.684-7.334-22.686-8.557-33.565-3.149s-17.758 16.509-17.758 28.656v853.333c0 36.189 13.537 71.247 38.174 97.377z" />
<glyph unicode="&#xea0a;" glyph-name="plus" d="M992 576h-352v352c0 17.672-14.328 32-32 32h-192c-17.672 0-32-14.328-32-32v-352h-352c-17.672 0-32-14.328-32-32v-192c0-17.672 14.328-32 32-32h352v-352c0-17.672 14.328-32 32-32h192c17.672 0 32 14.328 32 32v352h352c17.672 0 32 14.328 32 32v192c0 17.672-14.328 32-32 32z" />
<glyph unicode="&#xea0b;" glyph-name="minus" d="M0 544v-192c0-17.672 14.328-32 32-32h960c17.672 0 32 14.328 32 32v192c0 17.672-14.328 32-32 32h-960c-17.672 0-32-14.328-32-32z" />
</font>
</defs>
</svg>
